PathFileType	4	(X/Y/Z)	T1_P1_NoVision_NoMovement_3_0-639.trc
DataRate	CameraRate	NumFrames	NumMarkers	Units	OrigDataRate	OrigDataStartFrame	OrigNumFrames
60	60	7	27	m	60	0	639
Frame#	Time	RHip			RKnee			RAnkle			RBigToe			RSmallToe			RHeel			LHip			LKnee			LAnkle			LBigToe			LSmallToe			LHeel			Neck			Head			Nose			RShoulder			RElbow			RWrist			RThumb			RIndex			RPinky			LShoulder			LElbow			LWrist			LThumb			LIndex			LPinky		
		X1	Y1	Z1	X2	Y2	Z2	X3	Y3	Z3	X4	Y4	Z4	X5	Y5	Z5	X6	Y6	Z6	X7	Y7	Z7	X8	Y8	Z8	X9	Y9	Z9	X10	Y10	Z10	X11	Y11	Z11	X12	Y12	Z12	X13	Y13	Z13	X14	Y14	Z14	X15	Y15	Z15	X16	Y16	Z16	X17	Y17	Z17	X18	Y18	Z18	X19	Y19	Z19	X20	Y20	Z20	X21	Y21	Z21	X22	Y22	Z22	X23	Y23	Z23	X24	Y24	Z24	X25	Y25	Z25	X26	Y26	Z26	X27	Y27	Z27
1	0.0166666666666666	-66.21444542097821	3788.2785390147424	-545.9218566878296	292.79033582818437	3887.702705298494	-560.1780899707165	654.9511180572139	4193.783218781156	-601.5995357083165	708.1979813173712	3964.1149417168535	-501.9938610430883	728.0346934368141	4042.1587104317496	-608.1037623940267	682.8878251890868	4188.643129153532	-555.1306133299079	-103.66222704646067	3881.730680318323	-342.2231197617176	245.75783034045466	4010.734375423747	-359.8629677842049	590.765303945037	4200.170085417706	-384.0195932354274	687.0462415060971	4158.834361923773	-343.67491126366093	646.0149650055064	4163.841546728124	-306.64199988549444	622.2154502732359	4259.23354932047	-425.928010162519	-654.3330382319128	3657.2056889643563	-464.16712171147907	-899.0050697642101	3527.4332100505817	-419.2952556826422	-728.5583349791674	3529.570970301349	-387.38463467063303	-557.3072479586549	3634.193029620401	-623.3155343638906	-301.6055634836745	3717.2727413725747	-702.0722187222887	-35.924580740547455	3655.0246026907603	-627.769846524997	71.02774968264409	3764.7384336181403	-569.2558685962396	96.83207149065733	3708.5025906830037	-572.2173176632014	84.9156398564519	3647.9055712360523	-584.6062596220424	-603.9147127654948	3746.669672489772	-334.86631171623543	-381.0232429591119	3963.5894339670613	-319.6132986588043	-112.74831354034568	3984.8417452987583	-295.66847305752714	22.018672720595887	3936.217206310382	-323.2868355003881	33.304973327733705	3909.527820076897	-269.1928010119115	10.694343262452605	4005.585157501	-241.17676086129785
2	0.0333333333333333	-65.9927794211708	3777.708087001127	-543.1874708303246	291.42078235374385	3879.9130888813693	-550.5934424983766	657.5746967412543	4179.694551094195	-590.6652315973839	705.4688868057824	3974.496160977474	-502.82712123731693	723.5298341458399	4035.4730180347788	-600.1350203553795	682.3149263155049	4185.7347826228615	-553.073777420783	-103.52816945968516	3881.5476449541175	-342.06705623856834	245.90818497299955	4010.4202660711526	-359.7951166844325	589.2900843846273	4199.481197421714	-384.10317771098534	687.6086523056276	4160.310810511105	-341.2143574314667	647.7590700247642	4172.464415744474	-305.29865593998284	625.1278646931747	4260.123524187898	-423.9875901131862	-654.3566045931024	3657.1578586309015	-464.1525291580986	-898.0485790049613	3527.841562015353	-419.16001985598325	-731.2719111495348	3534.0001685798143	-388.2654904747924	-557.3411046085881	3634.240612996288	-623.3634141738513	-298.7548145849589	3718.361719826139	-698.730591079272	-36.104377291743155	3655.4303218584764	-624.4693055803762	75.2708720182098	3765.2424154289183	-569.2431529587054	96.6474488306642	3707.1296023116797	-569.2986631530047	85.08228157189164	3647.7981802460454	-584.2700966096036	-604.0032197958952	3746.7398451787058	-334.9423752413583	-382.7292325760882	3966.481784394194	-324.8854617673738	-112.23845409266758	3986.006033607799	-299.87310030952744	21.774430437305657	3933.446042391702	-321.41989081060353	33.12053217493667	3908.8584161836043	-268.89041655118194	12.604633261355882	3989.852476458824	-238.30094877809915
3	0.05	-65.82071644134398	3767.5350894672324	-540.5265669906993	290.15517249557024	3872.7869689988943	-543.037694902936	658.0990488769143	4171.216960228061	-584.1905010160938	703.5922788845651	3978.8832951242644	-503.2931894861237	721.0085258326021	4031.823498622829	-595.6421310566351	681.9244773827972	4183.883704130315	-551.8962433266789	-103.46747268084471	3881.2511992336795	-341.84570826534593	246.597308250614	4010.559620348889	-359.6858721628949	588.7949621949766	4199.319343512949	-384.224917945833	688.4185086139375	4160.927346394448	-340.36947744649854	649.1440467559437	4175.721276697805	-304.9267346465546	627.5610455795074	4260.297181926589	-423.3002009580215	-654.3780308019371	3657.124162330522	-464.15117462778716	-897.0865565073944	3525.748409001866	-418.5349962787128	-732.7941519630747	3533.5403147889983	-388.05277813656306	-557.3591073642685	3634.2635540537967	-623.4053633331002	-297.053566371319	3719.125423314751	-696.7195018426808	-36.20151511853165	3655.380134798709	-622.1616618335202	76.80894363608671	3765.232439819718	-569.1182933635682	96.81608298987412	3712.9344594591466	-570.383891868643	85.14316558854382	3647.6787145172807	-583.6730860795792	-604.0621276590092	3746.8019359051905	-335.0034802485128	-384.4912353641202	3970.553414760885	-329.8283750700733	-111.89094396973752	3986.7106463870305	-302.4936086536913	21.505589392902515	3930.4196607718395	-319.38122860493553	32.9718121806054	3908.5613566978236	-268.74079087614143	13.494961636916832	3980.25499091781	-237.0117059715233
4	0.0666666666666666	-65.75523410914107	3761.1960356133586	-538.8638212341666	289.36465755069173	3868.1038443154644	-538.8820697916449	656.1411248567902	4168.5391011414295	-582.5720436774441	703.3662817714057	3979.874030094934	-503.9132336105474	719.8638303013757	4031.273996716713	-595.0817372564343	681.4165169922903	4183.041623472303	-551.9716740354628	-103.61269047248912	3881.299306466968	-341.90300988503753	247.95735222569684	4011.378400080831	-359.55287919110685	589.3747678493291	4199.780289527151	-384.4835836892747	688.4518402285697	4158.719491546687	-339.88651207696745	648.989550005144	4171.015804523048	-304.1749996755095	628.6510187993529	4258.684402656812	-422.92634339498017	-654.4098973559156	3657.0938670162213	-464.16053199839007	-895.2806561421921	3520.201509688597	-417.2344592836817	-732.7810675105655	3530.183536586995	-387.2620264629794	-557.3589453181165	3634.2528235407385	-623.4313202832984	-296.6654036509829	3718.9093149471105	-696.0963175919788	-36.3740497627755	3654.0867727187588	-620.493699206701	76.00636654614094	3765.147506101225	-569.1214875593432	97.1296592778419	3723.4989549937063	-574.3718502618842	85.12195998203498	3647.472281574105	-582.8967515597785	-604.0896813596758	3746.8507466261003	-335.0422138849244	-385.81267017722894	3974.4360801413677	-333.3016210866562	-111.86575249414095	3986.9434185465943	-303.3462855501997	21.370663047761425	3929.057029464162	-318.4863141802831	32.88967390431087	3908.8483037300766	-268.8049450461079	13.230494461742275	3977.272414245002	-237.37338454990027
5	0.0833333333333333	-65.81320169386682	3762.4943889593865	-539.3989046602894	289.5149807705076	3866.584494542183	-537.6218199331447	652.875374440277	4168.283785449687	-583.3490272105763	704.933178018971	3982.9580661086375	-505.23384755795877	718.7532459126949	4032.3307867694243	-596.9188946083095	680.1892913980371	4182.7101161294595	-553.2581151052966	-104.10701156608752	3882.9424199105197	-343.16158086286157	249.18394040221645	4012.501776703063	-359.50332062118184	589.7784483826906	4200.195670861649	-384.9138477238335	686.6707504883021	4152.319598410747	-337.09255851067644	646.8968317383285	4162.754725610431	-301.19382785211235	627.537322068302	4255.111356326508	-421.67582628789245	-654.4803018351753	3657.0368710365074	-464.1650439027553	-892.456129304295	3513.1494786696735	-415.6516870538172	-731.6194345588644	3528.1378652569956	-386.89155254699835	-557.352481503814	3634.222739359342	-623.4346523876859	-297.05394358957176	3716.579970547243	-696.0311798017538	-37.0121647489728	3651.200123461066	-618.8956707650727	75.10271578940437	3765.657626178727	-569.4856161040748	97.13179742926465	3731.6713812536836	-578.0427750648316	85.13562508074882	3647.265281585499	-582.5940976221153	-604.1072908664142	3746.8757435586367	-335.06684889044806	-386.3366535104626	3975.930985037219	-334.3654663609431	-112.47230662084938	3986.7747015212512	-302.98932929528587	21.50078410970453	3930.862440636664	-319.7617644580959	32.851337831252366	3909.4867050734165	-268.98964717953237	12.304996925738685	3977.812575833402	-238.3353116064036
6	0.1	-65.9353701828116	3771.9314407282636	-542.6066795486987	290.8304108719211	3867.002837333213	-537.4938533463625	650.0159245252423	4168.192662373101	-584.3775486953302	707.4241009174403	3987.9537519046257	-506.55999179420365	718.1028988666764	4034.100405550226	-599.4025801151639	678.4781620027948	4183.502359699896	-555.2857415930827	-104.7865140808635	3887.2947903908853	-346.3840760025391	249.12202238569918	4013.0857679887977	-359.61949397438906	588.7769488111165	4199.7692413515115	-385.2463933285927	683.8876051293357	4143.863322106161	-332.0362765383609	644.288462167756	4159.131082097138	-296.7658653101613	624.416551209929	4250.016936606771	-419.20752587534076	-654.5824550020244	3656.943999484099	-464.1486187192624	-889.5900202507339	3508.0211046391723	-414.46645304367644	-730.0737709530821	3528.248527893657	-387.08570671502457	-557.3525187088953	3634.1896681526828	-623.401951032993	-297.58052851048103	3711.8868542061546	-695.90899031474	-38.32913425824416	3647.5313604876674	-617.7617098433138	75.32490197173652	3766.663111204816	-570.0437923956189	96.79415072917973	3735.2515503306076	-580.166617732806	85.23965599018763	3647.930349906992	-583.3558666801615	-604.1307986313186	3746.867413091524	-335.091228974655	-386.3620447291444	3976.1554243670457	-334.38884376167624	-113.97063997571138	3985.823248692682	-301.5366165377636	21.75606547036179	3934.028801569761	-321.96639619630474	32.770817008021375	3909.2888425964175	-268.99971379921374	11.52120731543073	3980.3708388261266	-239.81003803151708
7	0.1166666666666666	-66.01783887472297	3784.2361677810513	-547.0144304927588	292.9635240839482	3867.986823987606	-537.4231694957261	648.9100571934605	4168.190978209634	-584.8432680160511	710.1167710679408	3991.6350945558916	-506.77891833816045	718.7813415307515	4035.9508888771975	-600.8378932777383	678.1682417530424	4187.192072314727	-557.1291424844462	-105.02273077026754	3893.4361162369914	-350.7762080716361	247.7859606329783	4012.1920318481007	-359.71350369242947	586.7110334535924	4198.574009249329	-385.18314222030733	681.871987015773	4137.553020864983	-327.88634533784904	642.6375450703198	4162.809701067469	-293.45020254346593	620.6647944835893	4244.049017161717	-415.7666310347161	-654.5760769044723	3656.9025438788913	-464.11563364649305	-887.3634052474843	3506.230153840408	-413.9459546488621	-728.9028436647407	3529.1332582348987	-387.43510256684493	-557.3615544601043	3634.1571901396237	-623.3046806781538	-297.60776373553335	3706.4987626301454	-695.652050123289	-39.86404136174212	3643.7998538869615	-616.9750591034255	76.13219877777586	3767.5108980293953	-570.437498491854	96.64396004399546	3737.673235001179	-580.8631450478049	85.38096333341893	3651.285408900705	-584.979131039759	-604.1552196749973	3746.8355918590605	-335.1124022520375	-386.3412182595531	3977.754515350691	-335.438488427177	-115.94974848633994	3983.3830739755917	-298.9949894671669	21.86391865700878	3935.5763124201653	-323.0681579221843	32.59939466884839	3906.0176992277193	-268.4006037099307	11.434981378155012	3984.97637428448	-242.6413522280331
